File written by LIBUNFOLD3D. Compilation :ºº»¯°æ,20:31:19
#begin vertices
v 0 0 0
v 5.58922 0 0
v 0 0.395603 0
v 5.58922 0.395603 0
v 0 0.395603 0.71608
v 5.58922 0.395603 0.71608
v 0 0.791207 0.71608
v 5.58922 0.791207 0.71608
v 0 0.791207 1.43216
v 5.58922 0.791207 1.43216
v 0 1.18681 1.43216
v 5.58922 1.18681 1.43216
v 0 1.18681 2.14824
v 5.58922 1.18681 2.14824
v 0 1.58241 2.14824
v 5.58922 1.58241 2.14824
v 0 1.58241 2.86432
v 5.58922 1.58241 2.86432
v 0 1.97802 2.86432
v 5.58922 1.97802 2.86432
v 0 1.97802 3.5804
v 5.58922 1.97802 3.5804
v 0 2.37362 3.5804
v 5.58922 2.37362 3.5804
v 0 2.37362 4.29648
v 5.58922 2.37362 4.29648
v 0 2.76922 4.29648
v 5.58922 2.76922 4.29648
v 0 2.76922 5.01256
v 5.58922 2.76922 5.01256
v 0 3.16483 5.01256
v 5.58922 3.16483 5.01256
v 0 3.16483 5.72864
v 5.58922 3.16483 5.72864
v 0 3.56043 5.72864
v 5.58922 3.56043 5.72864
v 0 3.56043 6.44472
v 5.58922 3.56043 6.44472
v 0 3.95603 6.44472
v 5.58922 3.95603 6.44472
v 0 3.95603 7.1608
v 5.58922 3.95603 7.1608
v 0 4.35164 7.1608
v 5.58922 4.35164 7.1608
v 0 4.35164 7.87688
v 5.58922 4.35164 7.87688
v 0 4.74724 7.87688
v 5.58922 4.74724 7.87688
v 0 4.74724 8.59296
v 5.58922 4.74724 8.59296
v 5.58922 0 0.71608
v 5.58922 0 1.43216
v 5.58922 0 2.14824
v 5.58922 0 2.86432
v 5.58922 0 3.5804
v 5.58922 0 4.29648
v 5.58922 0 5.01256
v 5.58922 0 5.72864
v 5.58922 0 6.44472
v 5.58922 0 7.1608
v 5.58922 0 7.87688
v 5.58922 0 8.59296
v 0 0 0.71608
v 0 0 1.43216
v 0 0 2.14824
v 0 0 2.86432
v 0 0 3.5804
v 0 0 4.29648
v 0 0 5.01256
v 0 0 5.72864
v 0 0 6.44472
v 0 0 7.1608
v 0 0 7.87688
v 0 0 8.59296
#end vertices
#begin 128 textures vertices 
vt 0.84068 0.352225 0
vt 0.84068 0 0
vt 0.815749 0.352225 0
vt 0.815749 1.76163e-011 0
vt 0.0515549 0.706983 0
vt 0.432896 0.384082 0
vt 0.0636104 0.728804 0
vt 0.444952 0.36226 0
vt 0.10311 0.706983 0
vt 0.484451 0.384082 0
vt 0.115165 0.728804 0
vt 0.496507 0.36226 0
vt 0.154665 0.706983 0
vt 0.536006 0.384082 0
vt 0.16672 0.728804 0
vt 0.548062 0.36226 0
vt 0.20622 0.706983 0
vt 0.587561 0.384082 0
vt 0.218275 0.728804 0
vt 0.599616 0.36226 0
vt 0.257774 0.706983 0
vt 0.639116 0.384082 0
vt 0.26983 0.728804 0
vt 0.651171 0.36226 0
vt 0.309329 0.706983 0
vt 0.690671 0.384082 0
vt 0.321385 0.728804 0
vt 0.702726 0.36226 0
vt 0.360884 0.706983 0
vt 0.742226 0.384082 0
vt 0.37294 0.728804 0
vt 0.754281 0.36226 0
vt 0.412439 0.706983 0
vt 0.793781 0.384082 0
vt 0.424495 0.728804 0
vt 0.805836 0.36226 0
vt 0.463994 0.706983 0
vt 0.845335 0.384082 0
vt 0.476049 0.728804 0
vt 0.857391 0.36226 0
vt 0.515549 0.706983 0
vt 0.89689 0.384082 0
vt 0.527604 0.728804 0
vt 0.908946 0.36226 0
vt 0.567104 0.706983 0
vt 0.948445 0.384082 0
vt 0.579159 0.728804 0
vt 0.960501 0.36226 0
vt 0.618659 0.706983 0
vt 1 0.384082 0
vt 0.420841 0.405903 0
vt 0.46034 0.427725 0
vt 0.499839 0.449547 0
vt 0.539339 0.471368 0
vt 0.578838 0.49319 0
vt 0.618337 0.515012 0
vt 0.657837 0.536833 0
vt 0.697336 0.558655 0
vt 0.736836 0.580477 0
vt 0.776335 0.602298 0
vt 0.815834 0.62412 0
vt 0.855334 0.645942 0
vt 0.0394993 0.685161 0
vt 0.0789987 0.663339 0
vt 0.118498 0.641518 0
vt 0.157997 0.619696 0
vt 0.197497 0.597874 0
vt 0.236996 0.576052 0
vt 0.276495 0.554231 0
vt 0.315995 0.532409 0
vt 0.355494 0.510587 0
vt 0.394993 0.488766 0
vt 0.434493 0.466944 0
vt 0.473992 0.445122 0
vt 0 0.706983 0
vt 0.0120555 0.728804 0
vt 0.381341 0.384082 0
vt 0.393397 0.36226 0
vt 0.770623 0.352225 0
vt 0.770623 4.95035e-011 0
vt 0.745693 0.352225 0
vt 0.745693 6.71198e-011 0
vt 0.700566 0.352225 0
vt 0.700566 9.90069e-011 0
vt 0.675636 0.352225 0
vt 0.675636 1.16623e-010 0
vt 0.63051 0.352225 0
vt 0.63051 1.4851e-010 0
vt 0.60558 0.352225 0
vt 0.60558 1.66127e-010 0
vt 0.560453 0.352225 0
vt 0.560453 1.98014e-010 0
vt 0.535523 0.352225 0
vt 0.535523 2.1563e-010 0
vt 0.490397 0.352225 0
vt 0.490397 2.47517e-010 0
vt 0.465466 0.352225 0
vt 0.465466 2.65133e-010 0
vt 0.42034 0.352225 0
vt 0.42034 2.9702e-010 0
vt 0.39541 0.352225 0
vt 0.39541 3.14636e-010 0
vt 0.350283 0.352225 0
vt 0.350283 3.46524e-010 0
vt 0.325353 0.352225 0
vt 0.325353 3.6414e-010 0
vt 0.280227 0.352225 0
vt 0.280227 3.96027e-010 0
vt 0.255296 0.352225 0
vt 0.255296 4.13643e-010 0
vt 0.21017 0.352225 0
vt 0.21017 4.4553e-010 0
vt 0.18524 0.352225 0
vt 0.18524 4.63146e-010 0
vt 0.140113 0.352225 0
vt 0.140113 4.95033e-010 0
vt 0.115183 0.352225 0
vt 0.115183 5.1265e-010 0
vt 0.0700566 0.352225 0
vt 0.0700566 5.44537e-010 0
vt 0.0451263 0.352225 0
vt 0.0451263 5.62153e-010 0
vt 2.48888e-010 0.352225 0
vt 0.974413 0.655797 0
vt 0 5.9404e-010 0
vt 0.622189 0.655797 0
vt 0.622189 0.954961 0
vt 0.974413 0.954961 0
#end 128 textures vertices 

#begin 5 normals 
vn 0 0 -1
vn 0 1 0
vn 1 0 0
vn -1 0 0
vn 0 0 1
#end 5 normals 

#begin faces
f 6/6/3 8/8/3 10/10/3 
f 10/10/3 12/12/3 14/14/3 
f 14/14/3 16/16/3 18/18/3 
f 18/18/3 20/20/3 22/22/3 
f 22/22/3 24/24/3 26/26/3 
f 26/26/3 28/28/3 30/30/3 
f 30/30/3 32/32/3 34/34/3 
f 34/34/3 36/36/3 38/38/3 
f 38/38/3 40/40/3 42/42/3 
f 42/42/3 44/44/3 46/46/3 
f 46/46/3 48/48/3 50/50/3 
f 9/9/4 7/7/4 5/5/4 
f 13/13/4 11/11/4 9/9/4 
f 17/17/4 15/15/4 13/13/4 
f 21/21/4 19/19/4 17/17/4 
f 25/25/4 23/23/4 21/21/4 
f 29/29/4 27/27/4 25/25/4 
f 33/33/4 31/31/4 29/29/4 
f 37/37/4 35/35/4 33/33/4 
f 41/41/4 39/39/4 37/37/4 
f 45/45/4 43/43/4 41/41/4 
f 49/49/4 47/47/4 45/45/4 
f 4/4/1 2/2/1 1/1/1 
f 1/1/1 3/3/1 4/4/1 
f 6/80/2 4/4/2 3/3/2 
f 3/3/2 5/79/2 6/80/2 
f 8/82/1 6/80/1 5/79/1 
f 5/79/1 7/81/1 8/82/1 
f 10/84/2 8/82/2 7/81/2 
f 7/81/2 9/83/2 10/84/2 
f 12/86/1 10/84/1 9/83/1 
f 9/83/1 11/85/1 12/86/1 
f 14/88/2 12/86/2 11/85/2 
f 11/85/2 13/87/2 14/88/2 
f 16/90/1 14/88/1 13/87/1 
f 13/87/1 15/89/1 16/90/1 
f 18/92/2 16/90/2 15/89/2 
f 15/89/2 17/91/2 18/92/2 
f 20/94/1 18/92/1 17/91/1 
f 17/91/1 19/93/1 20/94/1 
f 22/96/2 20/94/2 19/93/2 
f 19/93/2 21/95/2 22/96/2 
f 24/98/1 22/96/1 21/95/1 
f 21/95/1 23/97/1 24/98/1 
f 26/100/2 24/98/2 23/97/2 
f 23/97/2 25/99/2 26/100/2 
f 28/102/1 26/100/1 25/99/1 
f 25/99/1 27/101/1 28/102/1 
f 30/104/2 28/102/2 27/101/2 
f 27/101/2 29/103/2 30/104/2 
f 32/106/1 30/104/1 29/103/1 
f 29/103/1 31/105/1 32/106/1 
f 34/108/2 32/106/2 31/105/2 
f 31/105/2 33/107/2 34/108/2 
f 36/110/1 34/108/1 33/107/1 
f 33/107/1 35/109/1 36/110/1 
f 38/112/2 36/110/2 35/109/2 
f 35/109/2 37/111/2 38/112/2 
f 40/114/1 38/112/1 37/111/1 
f 37/111/1 39/113/1 40/114/1 
f 42/116/2 40/114/2 39/113/2 
f 39/113/2 41/115/2 42/116/2 
f 44/118/1 42/116/1 41/115/1 
f 41/115/1 43/117/1 44/118/1 
f 46/120/2 44/118/2 43/117/2 
f 43/117/2 45/119/2 46/120/2 
f 48/122/1 46/120/1 45/119/1 
f 45/119/1 47/121/1 48/122/1 
f 50/125/2 48/122/2 47/121/2 
f 47/121/2 49/123/2 50/125/2 
f 6/6/3 51/51/3 2/77/3 
f 2/77/3 4/78/3 6/6/3 
f 10/10/3 52/52/3 51/51/3 
f 51/51/3 6/6/3 10/10/3 
f 14/14/3 53/53/3 52/52/3 
f 52/52/3 10/10/3 14/14/3 
f 18/18/3 54/54/3 53/53/3 
f 53/53/3 14/14/3 18/18/3 
f 22/22/3 55/55/3 54/54/3 
f 54/54/3 18/18/3 22/22/3 
f 26/26/3 56/56/3 55/55/3 
f 55/55/3 22/22/3 26/26/3 
f 30/30/3 57/57/3 56/56/3 
f 56/56/3 26/26/3 30/30/3 
f 34/34/3 58/58/3 57/57/3 
f 57/57/3 30/30/3 34/34/3 
f 38/38/3 59/59/3 58/58/3 
f 58/58/3 34/34/3 38/38/3 
f 42/42/3 60/60/3 59/59/3 
f 59/59/3 38/38/3 42/42/3 
f 46/46/3 61/61/3 60/60/3 
f 60/60/3 42/42/3 46/46/3 
f 50/50/3 62/62/3 61/61/3 
f 61/61/3 46/46/3 50/50/3 
f 3/76/4 1/75/4 63/63/4 
f 63/63/4 5/5/4 3/76/4 
f 5/5/4 63/63/4 64/64/4 
f 64/64/4 9/9/4 5/5/4 
f 9/9/4 64/64/4 65/65/4 
f 65/65/4 13/13/4 9/9/4 
f 13/13/4 65/65/4 66/66/4 
f 66/66/4 17/17/4 13/13/4 
f 17/17/4 66/66/4 67/67/4 
f 67/67/4 21/21/4 17/17/4 
f 21/21/4 67/67/4 68/68/4 
f 68/68/4 25/25/4 21/21/4 
f 25/25/4 68/68/4 69/69/4 
f 69/69/4 29/29/4 25/25/4 
f 29/29/4 69/69/4 70/70/4 
f 70/70/4 33/33/4 29/29/4 
f 33/33/4 70/70/4 71/71/4 
f 71/71/4 37/37/4 33/33/4 
f 37/37/4 71/71/4 72/72/4 
f 72/72/4 41/41/4 37/37/4 
f 41/41/4 72/72/4 73/73/4 
f 73/73/4 45/45/4 41/41/4 
f 45/45/4 73/73/4 74/74/4 
f 74/74/4 49/49/4 45/45/4 
f 49/124/5 74/128/5 62/127/5 
f 62/127/5 50/126/5 49/124/5 
#end faces
