File written by LIBUNFOLD3D. Compilation :ºº»¯°æ,20:31:19
#begin vertices
v -0.1773 4.03055e-010 -0.105369
v -0.717823 4.03055e-010 -0.146452
v -0.186675 0.276454 -0.11057
v -0.841963 0.521108 -0.142974
v -0.718853 0.199195 -0.954378
v -0.169131 -0.20137 -0.876859
v -0.796275 0.69096 -0.974576
v -0.14579 0.621482 -0.837464
v -0.753527 -0.0656257 -0.535507
v -0.904858 0.689443 -0.563998
v -0.102699 -0.144534 -0.373051
v -0.0634473 0.46544 -0.347188
v -0.250595 0.753056 -0.221643
v -0.735913 0.753056 -0.256636
v -0.731355 0.827596 -0.525933
v -0.190131 0.838831 -0.350109
v -0.635275 0.926364 -0.806253
v -0.265747 0.921227 -0.764418
#end vertices
#begin 33 textures vertices 
vt 0.491924 0.0502776 0
vt 0.278384 0.0777119 0
vt 0.491145 0.152636 0
vt 0.29942 0.253812 0
vt 1 0.217314 0
vt 0.811257 0.000490709 0
vt 0.962711 0.425812 0
vt 0.741381 0.304327 0
vt 0.119478 0.0920718 0
vt 0.20004 0.349358 0
vt 0.60489 0 0
vt 0.579143 0.225245 0
vt 0.583876 0.661156 0
vt 0.762096 0.651691 0
vt 0.762096 0.549188 0
vt 0.560878 0.604826 0
vt 0.729688 0.439299 0
vt 0.593764 0.450896 0
vt 0.553781 0.601802 0
vt 0.599602 0.408325 0
vt 0.494061 0.362937 0
vt 0.40861 0.595471 0
vt 0.306509 0.36379 0
vt 0.226508 0.601802 0
vt 0 0.242368 0
vt 0.0722675 0.417664 0
vt 0.845946 0.494144 0
vt 0.16941 0.494144 0
vt 0.49772 0.335378 0
vt 0.320219 0.34067 0
vt 0.553339 0.371364 0
vt 0.244593 0.409393 0
vt 0.716537 0.422985 0
#end 33 textures vertices 

#begin 48 normals 
vn -0.075776 0.0161839 0.996993
vn -0.0663427 -0.00201705 0.997584
vn -0.0569093 -0.0202179 0.998175
vn 0.124479 -0.0211452 -0.991997
vn 0.167365 0.00982817 -0.984396
vn 0.210251 0.0408015 -0.976796
vn -0.964655 -0.230654 0.127435
vn -0.971665 -0.212102 0.098125
vn -0.978674 -0.193549 0.0688147
vn -0.958708 -0.179761 -0.216418
vn -0.970234 -0.160208 -0.181604
vn -0.947183 -0.199314 -0.251233
vn 0.991497 -0.0219852 -0.128259
vn 0.986569 -0.0387079 -0.155384
vn 0.98164 -0.0554305 -0.18251
vn 0.937793 -0.0191974 0.330821
vn 0.967666 0.0375073 0.249431
vn 0.907921 -0.0759021 0.412211
vn -0.0977255 0.909302 0.377144
vn -0.0192089 0.963668 0.266411
vn -0.176242 0.854935 0.487878
vn -0.115421 0.948603 0.294671
vn -0.0620226 0.964528 0.245617
vn -0.00862466 0.980453 0.196562
vn -0.595911 -0.785455 0.167186
vn -0.2828 -0.81572 -0.182578
vn 0.0303109 -0.845986 -0.532343
vn -0.112099 -0.934625 0.292767
vn -0.0127271 -0.985798 0.167452
vn -0.211472 -0.883452 0.418082
vn 0.22787 0.31566 -0.921105
vn 0.165233 0.423426 -0.881061
vn 0.102596 0.531193 -0.841016
vn 0.945585 0.320372 -0.0568454
vn 0.931235 0.354621 -0.0734252
vn 0.916886 0.38887 -0.090005
vn 0.768373 0.241207 0.592809
vn 0.778235 0.256456 0.572575
vn 0.788096 0.271705 0.552341
vn 0.103896 0.398949 0.911068
vn 0.0168507 0.308211 0.942304
vn -0.0701948 0.217472 0.973539
vn -0.627251 0.68633 0.368113
vn -0.754566 0.572172 0.23998
vn -0.88188 0.458015 0.111846
vn -0.739944 0.644293 -0.193308
vn -0.684742 0.709575 -0.0680348
vn -0.62954 0.774857 0.057239
#end 48 normals 

#begin faces
f 3/3/2 4/4/3 2/2/2 1/1/1 
f 7/7/5 8/8/6 6/6/5 5/5/4 
f 4/4/8 10/10/9 9/9/8 2/2/7 
f 5/25/11 9/9/10 10/10/12 7/26/10 
f 12/12/15 11/11/14 6/6/13 8/8/14 
f 1/1/17 11/11/16 12/12/18 3/3/16 
f 14/14/20 13/13/19 16/16/21 15/15/19 
f 15/15/22 16/16/23 18/18/24 17/17/23 
f 6/23/25 11/21/26 9/22/27 5/24/26 
f 11/21/30 1/20/28 2/19/29 9/22/28 
f 17/27/33 18/33/32 8/8/31 7/7/32 
f 18/33/36 16/31/35 12/12/34 8/8/35 
f 16/31/39 13/29/38 3/3/37 12/12/38 
f 13/29/42 14/30/41 4/4/40 3/3/41 
f 14/30/45 15/32/44 10/10/43 4/4/44 
f 15/32/48 17/28/47 7/26/46 10/10/47 
#end faces
