File written by LIBUNFOLD3D. Compilation :ºº»¯°æ,20:31:19
#begin vertices
v -0.00435886 -1.70434e-008 0.0204432
v -1.00289 -1.70434e-008 -0.0285673
v -0.143612 0.516598 -0.11057
v -0.850994 0.51655 -0.142974
v -1 -1.70434e-008 -1.10214
v 0 0 -1
v -0.85421 0.69096 -0.979246
v -0.145789 0.69096 -0.87711
v -1.06752 -1.70434e-008 -0.542702
v -0.922046 0.689443 -0.542702
v 0.156529 -1.70434e-008 -0.434126
v 0.0110599 0.689443 -0.434126
v -0.222159 0.753056 -0.221643
v -0.735913 0.753056 -0.256636
v -0.746004 0.936332 -0.535258
v -0.161695 0.954293 -0.44025
v -0.676838 0.972254 -0.836377
v -0.265747 0.954293 -0.774752
#end vertices
#begin 36 textures vertices 
vt 0.300123 0.552309 0
vt 0.611175 0.734774 0
vt 0.446027 0.41432 0
vt 0.650644 0.547572 0
vt 0 0.336137 0
vt 0.354106 0.38322 0
vt 0.0882441 0.097183 0
vt 0.333113 0.137468 0
vt 0.799928 0.73511 0
vt 0.787088 0.490853 0
vt 0.562977 0.333541 0
vt 0.482771 0.102095 0
vt 1 0.919027 0
vt 0.984289 0.738957 0
vt 0.867172 0.738957 0
vt 0.896718 0.944738 0
vt 0.760312 0.761349 0
vt 0.779992 0.906065 0
vt 0.0409036 0.97017 0
vt 0.391339 0.951671 0
vt 0.72562 0.263859 0
vt 0.620815 0.0910233 0
vt 0.431309 0.787197 0
vt 0 0.792939 0
vt 0.356467 0.595177 0
vt 0.999069 0.717191 0
vt 0.00362408 0.595177 0
vt 0.939575 0.469907 0
vt 0.553755 0.0163055 0
vt 0.520891 0.353717 0
vt 0.177204 1.57653e-008 0
vt 0.88018 0.353717 0
vt 0.673972 0.451814 0
vt 0.443087 0 0
vt 0.77397 0.387032 0
vt 0.32176 0.0340396 0
#end 36 textures vertices 

#begin 43 normals 
vn -0.0476689 0.233453 0.971199
vn -0.0461176 0.230978 0.971861
vn -0.0445663 0.228502 0.972523
vn 0.1004 0.153648 -0.983012
vn 0.12008 0.177772 -0.976198
vn 0.139759 0.201897 -0.969384
vn -0.945156 0.304248 0.1188
vn -0.945692 0.251949 0.186674
vn -0.946227 0.19965 0.254547
vn -0.967405 0.214501 -0.133186
vn -0.967368 0.224875 -0.116748
vn -0.967443 0.204126 -0.149624
vn 0.934859 0.243243 -0.258596
vn 0.929803 0.21918 -0.292679
vn 0.924747 0.195117 -0.326761
vn 0.869993 0.24978 0.408226
vn 0.892864 0.320822 0.316016
vn 0.847122 0.178739 0.500437
vn -0.0832302 0.790676 0.601093
vn -0.0374695 0.834246 0.550119
vn -0.128991 0.747107 0.652068
vn -0.0479955 0.993052 0.107443
vn -0.00110987 0.995951 0.0466016
vn 0.0457757 0.99885 -0.0142393
vn 2.07046e-008 -1 -3.5846e-008
vn 0.130142 0.410159 -0.902681
vn 0.14184 0.389479 -0.909711
vn 0.153537 0.368798 -0.916741
vn 0.806157 0.519276 -0.283661
vn 0.821338 0.500743 -0.271937
vn 0.836518 0.48221 -0.260213
vn 0.656792 0.488154 0.574743
vn 0.661292 0.468113 0.585681
vn 0.665791 0.448071 0.596619
vn -0.0409223 0.448904 0.892642
vn -0.051491 0.428145 0.901894
vn -0.0620597 0.407386 0.911145
vn -0.762868 0.532918 0.366103
vn -0.752615 0.540006 0.376432
vn -0.742363 0.547095 0.386762
vn -0.809782 0.573513 -0.123841
vn -0.808404 0.576231 -0.120073
vn -0.807026 0.578949 -0.116305
#end 43 normals 

#begin faces
f 3/3/2 4/4/3 2/2/2 1/1/1 
f 7/7/5 8/8/6 6/6/5 5/5/4 
f 4/4/8 10/10/9 9/9/8 2/2/7 
f 5/26/11 9/9/10 10/10/12 7/28/10 
f 12/12/15 11/11/14 6/6/13 8/8/14 
f 1/21/17 11/11/16 12/12/18 3/22/16 
f 14/14/20 13/13/19 16/16/21 15/15/19 
f 15/15/22 16/16/23 18/18/24 17/17/23 
f 6/25/25 11/23/25 9/24/25 5/27/25 
f 11/23/25 1/20/25 2/19/25 9/24/25 
f 17/31/28 18/36/27 8/8/26 7/7/27 
f 18/36/31 16/34/30 12/12/29 8/8/30 
f 16/34/34 13/29/33 3/22/32 12/12/33 
f 13/30/37 14/33/36 4/4/35 3/3/36 
f 14/33/40 15/35/39 10/10/38 4/4/39 
f 15/35/43 17/32/42 7/28/41 10/10/42 
#end faces
