File written by LIBUNFOLD3D. Compilation :ºº»¯°æ,20:31:19
#begin vertices
v 1.13814e-005 -0.105168 3.7032e-006
v -0.999987 -0.105168 3.7032e-006
v -1.08476e-005 0.889839 0.0511522
v -1.00001 0.889839 0.0511522
v -0.999987 -0.105168 -0.999999
v 1.13814e-005 -0.105168 -0.999999
v -1.00001 0.889839 -1.05116
v -1.08476e-005 0.889839 -1.05116
v -0.112881 1.64774 -0.348096
v -0.887124 1.64774 -0.348096
v -0.112881 1.64774 -0.651899
v -0.887124 1.64774 -0.651899
v -1.08476e-005 1.01932 -0.943502
v -1.00001 1.01932 -0.943502
v -1.00001 1.01932 -0.056503
v -1.08476e-005 1.01932 -0.056503
v -1.00001 1.10727 -0.725845
v -8.59661e-006 1.10727 -0.725845
v -8.59661e-006 1.10727 -0.274155
v -1.00001 1.10727 -0.274155
v 1.13814e-005 1.10737 -0.376545
v -0.999987 1.10737 -0.376545
v 1.13814e-005 1.10737 -0.62345
v -0.999987 1.10737 -0.62345
v -0.112881 1.10747 -0.376545
v -0.887124 1.10747 -0.376545
v -0.112881 1.10747 -0.62345
v -0.887124 1.10747 -0.62345
v -0.112881 1.35875 -0.376545
v -0.887124 1.35875 -0.376545
v -0.112881 1.35875 -0.62345
v -0.887124 1.35875 -0.62345
v -0.112881 1.35875 -0.177434
v -0.887124 1.35875 -0.177434
v -0.112881 1.47523 -0.177434
v -0.887124 1.47523 -0.177434
v -0.112881 1.47523 -0.62345
v -0.112881 1.47523 -0.376545
v -0.887124 1.47523 -0.376545
v -0.887124 1.47523 -0.62345
v -0.887124 1.35875 -0.830777
v -0.112881 1.35875 -0.830777
v -0.887124 1.47523 -0.830777
v -0.112881 1.47523 -0.830777
#end vertices
#begin 112 textures vertices 
vt 0 0.551793 0
vt 0.774872 0.551767 0
vt 0.268633 0.579487 0
vt 0.506239 0.579461 0
vt 0.760954 0.28107 0
vt 0.0139178 0.281096 0
vt 0.490897 0.28107 0
vt 0.283975 0.281096 0
vt 0.494231 0.626694 0
vt 0.284369 0.626694 0
vt 0.494231 0.709041 0
vt 0.284369 0.709041 0
vt 0.317527 0.31204 0
vt 0.457344 0.312014 0
vt 0.469689 0.552122 0
vt 0.305182 0.552147 0
vt 0.436566 0.372157 0
vt 0.338306 0.372183 0
vt 0.332019 0.494454 0
vt 0.442852 0.494428 0
vt 0.476618 0.27106 0
vt 0.476618 6.07699e-006 0
vt 1.95396e-005 0.621045 0
vt 0.437963 0.399876 0
vt 0.474414 0.240453 0
vt 0.474068 0.0305917 0
vt 0.407117 0.240505 0
vt 0.407143 0.0306427 0
vt 0 0.583277 0
vt 0.209862 0.583277 0
vt 0.493377 0.834557 0
vt 0.292401 0.887341 0
vt 0.706506 0.720079 0
vt 0.496644 0.720079 0
vt 0.706506 0.75165 0
vt 0.496644 0.75165 0
vt 0.493377 0.866128 0
vt 0.426453 0.866128 0
vt 0.323972 0.820416 0
vt 0.323972 0.887341 0
vt 0.0760987 0.749168 0
vt 0.285961 0.749168 0
vt 0.0760987 0.717597 0
vt 0.285961 0.717597 0
vt 0.728945 0.837569 0
vt 0.883701 0.27106 0
vt 0.883701 6.06101e-006 0
vt 0.728945 0.566515 0
vt 0.613644 0.271054 0
vt 0 0.271054 0
vt 1 0.837569 0
vt 0.613644 0 0
vt 3.38976e-005 1.86051e-008 0
vt 1 0.566515 0
vt 0.270091 2.772e-005 0
vt 0.568001 0.271054 0
vt 0.270057 0.271081 0
vt 0.568001 1.79156e-009 0
vt 0.315734 3.34281e-005 0
vt 0.501089 0.912889 0
vt 0.418742 0.912889 0
vt 0.3157 0.271087 0
vt 0.370733 0.812705 0
vt 0.370733 0.895052 0
vt 0 0.59329 0
vt 0 0.59329 0
vt 0.379331 0.271096 0
vt 0.379365 4.19278e-005 0
vt 0.504371 5.46398e-007 0
vt 0.504371 0.271054 0
vt 1.92352e-009 0.715723 0
vt 0.494231 0.579301 0
vt 2.76425e-005 0.687969 0
vt 4.46166e-009 0.687969 0
vt 0.474011 0.271172 0
vt 0.474491 0.271053 0
vt 0.284369 0.579301 0
vt 0.494231 0.756433 0
vt 0.40712 5.09283e-005 0
vt 0.407086 0.271105 0
vt 0.474045 0 0
vt 0.4414 0.466713 0
vt 0.284369 0.756433 0
vt 0.474042 0.240572 0
vt 0.426453 0.766446 0
vt 3.42338e-009 0.651388 0
vt 0.209862 0.651388 0
vt 0.224291 0.820416 0
vt 0.730537 0.656097 0
vt 0.493377 0.766446 0
vt 0.426453 0.834557 0
vt 0.224291 0.887341 0
vt 0.520675 0.656097 0
vt 0.292401 0.820416 0
vt 0.730537 0.587986 0
vt 0.520675 0.587986 0
vt 0.372483 0.834557 0
vt 0.292401 0.766446 0
vt 0.372483 0.866128 0
vt 0.323972 0.766446 0
vt 0.549574 0.834557 0
vt 0.292401 0.943538 0
vt 0.549574 0.866128 0
vt 0.323972 0.943538 0
vt 0.496644 0.666109 0
vt 0.706506 0.666109 0
vt 0.285961 0.805365 0
vt 0.0760987 0.805365 0
vt 0.0760987 0.661401 0
vt 0.285961 0.661401 0
vt 0.496644 0.80562 0
vt 0.706506 0.80562 0
#end 112 textures vertices 

#begin 20 normals 
vn 0 -0.0513374 0.998681
vn 0 -0.0513464 -0.998681
vn 0 1 0
vn 0 -1 0
vn 0 0.639314 -0.768946
vn 0 0.639314 0.768946
vn 0 0.927167 -0.374649
vn 0 0.927164 0.374656
vn 1 1.29484e-005 -1.55739e-005
vn -1 -1.2376e-006 -7.42334e-006
vn 0 1 0.000975658
vn 0.980584 -0.196102 0
vn -0.980491 0.196566 0
vn 0 1 -0.00097561
vn 0 0 1
vn 0.000884888 1 0
vn -0.000885127 1 0
vn 0 0 -1
vn 0 -0.162707 0.986674
vn 0 -0.162707 -0.986674
#end 20 normals 

#begin faces
f 8/8/9 13/13/9 18/18/9 
f 18/18/9 3/3/9 8/8/9 
f 18/18/9 19/19/9 3/3/9 
f 3/3/9 19/19/9 16/16/9 
f 3/3/9 1/1/9 8/8/9 
f 1/1/9 6/6/9 8/8/9 
f 7/7/10 5/5/10 2/2/10 
f 7/7/10 2/2/10 4/4/10 
f 15/15/10 20/20/10 4/4/10 
f 4/4/10 20/20/10 17/17/10 
f 7/7/10 4/4/10 17/17/10 
f 17/17/10 14/14/10 7/7/10 
f 4/52/1 2/47/1 1/46/1 
f 1/46/1 3/49/1 4/52/1 
f 8/57/2 6/50/2 5/53/2 
f 5/53/2 7/55/2 8/57/2 
f 12/12/3 10/10/3 9/9/3 
f 9/9/3 11/11/3 12/12/3 
f 2/48/4 5/54/4 6/51/4 
f 6/51/4 1/45/4 2/48/4 
f 13/62/5 8/57/5 7/55/5 
f 7/55/5 14/59/5 13/62/5 
f 15/58/6 4/52/6 3/49/6 
f 3/49/6 16/56/6 15/58/6 
f 14/59/7 17/68/7 18/67/7 
f 18/67/7 13/62/7 14/59/7 
f 16/56/8 19/70/8 20/69/8 
f 20/69/8 15/58/8 16/56/8 
f 22/22/11 20/69/11 19/70/11 
f 19/70/11 21/21/11 22/22/11 
f 21/73/12 19/71/12 18/65/12 
f 18/66/12 23/23/12 21/74/12 
f 24/24/13 17/17/13 20/20/13 
f 20/20/13 22/82/13 24/24/13 
f 23/80/14 18/67/14 17/68/14 
f 17/68/14 24/79/14 23/80/14 
f 26/26/15 22/81/15 21/76/15 
f 21/76/15 25/25/15 26/26/15 
f 25/84/16 21/75/16 23/80/16 
f 23/80/16 27/27/16 25/84/16 
f 28/28/17 24/79/17 22/81/17 
f 22/81/17 26/26/17 28/28/17 
f 27/27/18 23/80/18 24/79/18 
f 24/79/18 28/28/18 27/27/18 
f 30/30/15 26/87/15 25/86/15 
f 25/86/15 29/29/15 30/30/15 
f 29/91/9 25/85/9 27/90/9 
f 27/90/9 31/31/9 29/91/9 
f 32/32/10 28/92/10 26/88/10 
f 26/88/10 30/94/10 32/32/10 
f 31/95/18 27/89/18 28/93/18 
f 28/93/18 32/96/18 31/95/18 
f 36/36/15 34/34/15 33/33/15 
f 33/33/15 35/35/15 36/36/15 
f 38/38/9 29/91/9 31/31/9 
f 31/31/9 37/37/9 38/38/9 
f 40/40/10 32/32/10 30/94/10 
f 30/94/10 39/39/10 40/40/10 
f 44/44/18 42/42/18 41/41/18 
f 41/41/18 43/43/18 44/44/18 
f 10/10/19 39/77/19 38/72/19 
f 38/72/19 9/9/19 10/10/19 
f 9/61/9 38/38/9 37/37/9 
f 37/37/9 11/60/9 9/61/9 
f 12/64/10 40/40/10 39/39/10 
f 39/39/10 10/63/10 12/64/10 
f 11/11/20 37/78/20 40/83/20 
f 40/83/20 12/12/20 11/11/20 
f 42/42/4 31/107/4 32/108/4 
f 32/108/4 41/41/4 42/42/4 
f 41/102/10 32/32/10 40/40/10 
f 40/40/10 43/104/10 41/102/10 
f 44/103/9 37/37/9 31/31/9 
f 31/31/9 42/101/9 44/103/9 
f 43/43/3 40/109/3 37/110/3 
f 37/110/3 44/44/3 43/43/3 
f 34/34/4 30/105/4 29/106/4 
f 29/106/4 33/33/4 34/34/4 
f 33/97/9 29/91/9 38/38/9 
f 38/38/9 35/99/9 33/97/9 
f 36/100/10 39/39/10 30/94/10 
f 30/94/10 34/98/10 36/100/10 
f 35/35/3 38/112/3 39/111/3 
f 39/111/3 36/36/3 35/35/3 
#end faces
